<?xml version="1.0" encoding="utf-8"?>
<svg version="1.0" width="712.000000pt" height="141.000000pt" viewBox="0 0 712.000000 141.000000" preserveAspectRatio="xMidYMid meet" xmlns="http://www.w3.org/2000/svg" xmlns:bx="https://boxy-svg.com">
  <defs>
    <radialGradient gradientUnits="userSpaceOnUse" cx="1836.707" cy="1010.307" r="76.707" id="gradient-1">
      <stop offset="0" style="stop-color: #bada55"/>
      <stop offset="1" style="stop-color: #758d29"/>
    </radialGradient>
    <linearGradient id="gradient-2" bx:pinned="true"/>
  </defs>
  <g transform="matrix(0.1, 0, 0, -0.1, 106.157249, 145.146759)" fill="#000000" stroke="none">
    <path d="M1368 1269 c-30 -11 -31 -16 -159 -386 -39 -114 -78 -214 -87 -220 -19 -16 -112 -43 -145 -43 l-25 0 14 47 c30 98 11 178 -49 206 -59 28 -136 16 -177 -28 -13 -14 -34 -25 -46 -25 -34 0 -79 -43 -105 -102 -30 -68 -33 -186 -6 -236 25 -47 72 -72 132 -72 66 0 116 30 173 100 44 54 47 55 134 76 80 19 89 20 85 5 -46 -160 -46 -164 13 -164 39 0 64 23 85 81 10 26 34 67 54 91 l35 45 17 -57 c19 -65 52 -121 82 -142 12 -8 40 -15 63 -15 39 0 47 5 101 64 l58 63 1 -45 c1 -38 6 -50 33 -74 58 -52 110 -32 187 74 37 50 38 50 47 27 39 -102 70 -129 152 -129 66 0 116 30 173 100 44 53 48 56 131 76 115 27 174 59 144 77 -5 3 -42 -6 -83 -19 -41 -13 -87 -24 -102 -24 l-26 0 14 47 c30 98 11 178 -49 206 -59 28 -136 16 -177 -28 -13 -14 -34 -25 -48 -25 -35 0 -86 -56 -108 -118 -19 -53 -147 -232 -172 -240 -21 -7 -5 76 40 208 46 132 55 175 39 184 -22 14 -72 9 -92 -10 -26 -22 -76 -125 -85 -171 -6 -32 -130 -185 -158 -196 -15 -6 -20 12 -31 128 l-6 60 51 28 c34 18 61 43 80 74 44 70 40 105 -16 123 -31 10 -41 9 -87 -14 -29 -14 -79 -52 -112 -85 -33 -33 -61 -58 -63 -57 -1 2 36 112 83 245 47 133 85 251 85 262 0 12 -10 23 -26 29 -29 12 -30 12 -66 -1z m-491 -508 c7 -48 -14 -131 -32 -131 -37 0 -44 115 -10 166 21 33 35 21 42 -35z m1320 0 c7 -48 -14 -131 -32 -131 -37 0 -44 115 -10 166 21 33 35 21 42 -35z m-747 26 c0 -2 -12 -14 -27 -28 l-28 -24 24 28 c23 25 31 32 31 24z m-650 -209 l34 -14 -47 -48 c-26 -26 -52 -44 -57 -41 -15 9 -30 75 -30 129 l0 50 33 -31 c17 -17 48 -38 67 -45z m1320 0 l34 -14 -47 -48 c-26 -26 -52 -44 -57 -41 -15 9 -30 75 -30 129 l0 50 33 -31 c17 -17 48 -38 67 -45z" style="stroke-miterlimit: 5; stroke-linecap: round; stroke-width: 20px; stroke: rgb(255, 255, 255);"/>
    <path d="M4828 1269 c-16 -6 -31 -23 -38 -42 -7 -18 -54 -153 -106 -302 -52 -148 -101 -278 -108 -290 -8 -11 -44 -51 -80 -90 -82 -89 -85 -73 -17 103 65 167 70 195 40 216 -57 40 -135 11 -227 -83 l-63 -65 20 52 c12 29 21 61 21 72 0 42 -77 54 -114 17 -12 -12 -35 -59 -52 -105 -22 -62 -47 -106 -99 -174 -38 -51 -76 -94 -84 -96 -22 -7 -8 70 39 205 51 146 57 173 39 184 -25 15 -72 10 -95 -12 -21 -20 -23 -20 -49 -3 -36 24 -129 24 -179 -1 -85 -41 -159 -178 -160 -298 -1 -65 1 -70 32 -98 64 -57 139 -33 207 66 22 32 41 51 42 44 14 -105 38 -139 99 -139 32 0 45 8 86 50 l48 49 -6 -43 c-6 -38 -4 -45 16 -56 42 -23 67 -4 157 118 95 128 184 235 190 228 2 -2 -12 -51 -31 -108 -43 -127 -47 -194 -13 -225 51 -46 95 -33 166 50 25 29 42 44 39 35 -4 -9 -10 -33 -13 -52 -6 -32 -5 -37 19 -46 28 -10 64 -1 83 21 6 8 19 34 29 59 9 25 33 65 53 89 l35 45 17 -57 c19 -65 52 -121 82 -142 12 -8 40 -15 62 -15 36 0 47 6 87 48 58 60 138 160 138 172 0 6 -8 10 -18 10 -11 0 -50 -36 -92 -86 -40 -47 -81 -89 -91 -94 -19 -11 -22 0 -34 125 l-6 60 51 28 c34 18 61 43 80 74 44 70 40 105 -16 123 -31 10 -41 9 -87 -14 -29 -14 -79 -52 -112 -85 -33 -33 -61 -58 -63 -57 -1 2 36 112 83 245 47 133 85 251 85 262 0 12 -10 23 -26 29 -29 12 -30 12 -66 -1z m-1014 -486 c13 -21 20 -40 16 -43 -4 -3 -35 -48 -70 -100 -77 -115 -107 -153 -114 -142 -7 13 11 121 29 173 29 82 76 147 107 149 4 0 18 -17 32 -37z m1096 4 c0 -2 -12 -14 -27 -28 l-28 -24 24 28 c23 25 31 32 31 24z" style="stroke-miterlimit: 5; stroke-linecap: round; stroke-width: 20px; stroke: rgb(255, 255, 255);"/>
    <path d="M982 1206 c-81 -69 -213 -82 -467 -46 -244 34 -384 17 -460 -55 -44 -41 -45 -81 -3 -104 25 -14 28 -14 55 13 61 61 181 94 298 81 l64 -6 -21 -52 c-50 -125 -176 -525 -222 -702 -13 -52 -13 -62 -1 -74 20 -21 73 -18 94 5 24 24 105 236 164 424 25 80 63 196 84 259 l39 113 154 2 c148 1 158 2 215 29 62 29 115 72 115 93 0 16 -20 31 -51 39 -19 5 -34 0 -57 -19z" style="stroke-miterlimit: 5; stroke-linecap: round; stroke-width: 20px; stroke: rgb(255, 255, 255);"/>
    <path d="M2927 1183 c-22 -25 -130 -234 -166 -320 -31 -76 -71 -222 -71 -260 0 -27 35 -45 69 -36 14 4 50 48 98 122 95 146 147 214 227 295 65 66 172 144 182 133 11 -10 -23 -95 -62 -152 -43 -66 -101 -116 -180 -159 -67 -36 -76 -52 -38 -66 21 -8 46 -6 107 10 89 22 148 25 177 10 43 -23 33 -141 -21 -249 -75 -149 -259 -239 -383 -187 -41 17 -50 30 -42 60 7 30 59 55 141 69 57 10 65 9 99 -11 44 -26 69 -28 86 -7 11 13 9 20 -10 40 -47 50 -179 54 -320 8 -59 -19 -120 -72 -120 -104 0 -65 83 -123 201 -139 262 -37 522 159 536 404 4 59 1 77 -16 103 -23 37 -78 68 -139 78 l-42 7 53 58 c66 71 99 136 105 206 6 68 -17 94 -84 94 -70 0 -152 -49 -265 -158 l-97 -92 39 92 c40 97 47 136 27 156 -18 18 -73 15 -91 -5z" style="stroke-miterlimit: 5; stroke-linecap: round; stroke-width: 20px; stroke: rgb(255, 255, 255);"/>
    <path d="M 1826 1097 C 1813.417 1084.058 1801.351 1067.367 1791.057 1049.391 C 1772.717 1017.366 1760 981.26 1760 955 C 1760 926 1765 918 1786 910 C 1832 892 1842 904 1906 1056 C 1921 1092 1914 1106 1878 1115 C 1857 1120 1845 1116 1826 1097 Z" style="stroke-linecap: round; stroke: url(#gradient-1);"/>
  </g>
</svg>