<?xml version="1.0" standalone="no"?>
<svg xmlns:xlink="http://www.w3.org/1999/xlink" id="wave" style="transform:rotate(0deg); transition: 0.3s" viewBox="0 0 1440 360" version="1.1" xmlns="http://www.w3.org/2000/svg"><defs><linearGradient id="sw-gradient-0" x1="0" x2="0" y1="1" y2="0"><stop stop-color="rgba(193.847, 60.014, 17.032, 1)" offset="0%"/><stop stop-color="rgba(35.899, 67.061, 239.383, 1)" offset="100%"/></linearGradient></defs><path style="transform:translate(0, 0px); opacity:1" fill="url(#sw-gradient-0)" d="M0,180L80,192C160,204,320,228,480,198C640,168,800,84,960,72C1120,60,1280,120,1440,150C1600,180,1760,180,1920,168C2080,156,2240,132,2400,102C2560,72,2720,36,2880,36C3040,36,3200,72,3360,120C3520,168,3680,228,3840,216C4000,204,4160,120,4320,126C4480,132,4640,228,4800,252C4960,276,5120,228,5280,198C5440,168,5600,156,5760,138C5920,120,6080,96,6240,126C6400,156,6560,240,6720,270C6880,300,7040,276,7200,234C7360,192,7520,132,7680,132C7840,132,8000,192,8160,216C8320,240,8480,228,8640,204C8800,180,8960,144,9120,156C9280,168,9440,228,9600,252C9760,276,9920,264,10080,258C10240,252,10400,252,10560,240C10720,228,10880,204,11040,204C11200,204,11360,228,11440,240L11520,252L11520,360L11440,360C11360,360,11200,360,11040,360C10880,360,10720,360,10560,360C10400,360,10240,360,10080,360C9920,360,9760,360,9600,360C9440,360,9280,360,9120,360C8960,360,8800,360,8640,360C8480,360,8320,360,8160,360C8000,360,7840,360,7680,360C7520,360,7360,360,7200,360C7040,360,6880,360,6720,360C6560,360,6400,360,6240,360C6080,360,5920,360,5760,360C5600,360,5440,360,5280,360C5120,360,4960,360,4800,360C4640,360,4480,360,4320,360C4160,360,4000,360,3840,360C3680,360,3520,360,3360,360C3200,360,3040,360,2880,360C2720,360,2560,360,2400,360C2240,360,2080,360,1920,360C1760,360,1600,360,1440,360C1280,360,1120,360,960,360C800,360,640,360,480,360C320,360,160,360,80,360L0,360Z"/></svg>